<?xml version="1.0" encoding="UTF-8"?>
<!DOCTYPE svg PUBLIC "-//W3C//DTD SVG 1.1//EN" "http://www.w3.org/Graphics/SVG/1.1/DTD/svg11.dtd">
<svg version="1.1" xmlns="http://www.w3.org/2000/svg" xmlns:xlink="http://www.w3.org/1999/xlink" x="0" y="0" width="545" height="374" viewBox="0, 0, 545, 374">
  <g id="Layer_1">
    <path d="M292.021,371.951 C430.206,371.951 542.911,320.443 542.911,257.288 C542.911,194.134 430.206,142.624 292.021,142.624 C153.833,142.624 41.128,194.134 41.128,257.288 C41.128,320.443 153.833,371.951 292.021,371.951" fill="#BCCBD0"/>
    <path d="M504.356,232.049 C504.356,295.376 392.028,346.714 253.464,346.714 C114.901,346.714 2.573,295.376 2.573,232.049 L2.573,117.386 L504.356,117.386 L504.356,232.049" fill="#1E1F1D"/>
    <path d="M504.356,232.049 C504.356,295.376 392.028,346.714 253.464,346.714 C202.767,346.714 155.589,339.835 116.134,328.014 C222.909,345.18 354.99,327.463 423.521,275.518 C465.196,243.929 458.632,222.715 405.739,231.151 C312.433,246.034 201.14,244.297 131.26,217.551 L188.717,117.386 L504.356,117.386 L504.356,232.049" fill="#121211"/>
    <path d="M253.466,232.049 C391.651,232.049 504.356,180.54 504.356,117.386 C504.356,54.231 391.651,2.722 253.466,2.722 C115.278,2.722 2.573,54.231 2.573,117.386 C2.573,180.54 115.278,232.049 253.466,232.049" fill="#626360"/>
    <path d="M491.861,81.577 L31.497,170.865 C45.2,182.722 63.306,193.35 84.836,202.288 L496.818,145.369 C501.733,136.413 504.356,127.038 504.356,117.386 C504.356,104.88 499.962,92.845 491.861,81.577 z M337.946,9.392 C384.339,16.974 424.415,30.621 453.611,48.243 L14.757,152.755 C6.858,141.614 2.573,129.731 2.573,117.386 C2.573,117.012 2.596,116.641 2.604,116.269 L337.946,9.392" fill="#878984"/>
    <path d="M253.466,215.215 C378.325,215.215 480.164,171.269 480.164,117.386 C480.164,63.504 378.325,19.556 253.466,19.556 C128.604,19.556 26.767,63.504 26.767,117.386 C26.767,171.269 128.604,215.215 253.466,215.215" fill="#1E1F1D"/>
    <path d="M253.466,212.996 C370.794,212.996 466.487,171.699 466.487,121.067 C466.487,70.435 370.794,29.139 253.466,29.139 C136.136,29.139 40.443,70.435 40.443,121.067 C40.443,171.699 136.136,212.996 253.466,212.996" fill="#2E2F2C"/>
    <path d="M459.66,97.902 L76.457,172.225 C96.215,184.934 123.137,195.394 154.72,202.537 L443.505,162.638 C458.198,150.153 466.487,136.029 466.487,121.067 C466.487,113.066 464.114,105.303 459.66,97.902 z M301.49,31.486 C350.935,36.402 393.79,48.748 423.43,65.651 L54.173,153.588 C45.309,143.478 40.443,132.52 40.443,121.067 C40.443,118.862 40.635,116.675 40.989,114.509 L301.49,31.486" fill="#373835"/>
  </g>
</svg>
